<svg xmlns="http://www.w3.org/2000/svg" width="980" height="540" viewBox="0 0 980 540">
<rect width="100%" height="100%" fill="#ffffff"/>
<text x="490.0" y="30.0" font-size="18" font-weight="700" text-anchor="middle" fill="#1f2937">Decode TPS/Card: 32K + 1K</text>
<text x="90.0" y="56.0" font-size="11" font-weight="400" text-anchor="start" fill="#1f2937">Point label = HBM / TPOT max B/card</text>
<text x="90.0" y="72.0" font-size="12" font-weight="400" text-anchor="start" fill="#1f2937">tokens/s/card</text>
<line x1="90" y1="84" x2="90" y2="456" stroke="#374151"/>
<line x1="90" y1="456" x2="830" y2="456" stroke="#374151"/>
<line x1="90" y1="456.0" x2="830" y2="456.0" stroke="#e5e7eb"/>
<text x="80.0" y="460.0" font-size="11" font-weight="400" text-anchor="end" fill="#1f2937">0.0</text>
<line x1="90" y1="381.6" x2="830" y2="381.6" stroke="#e5e7eb"/>
<text x="80.0" y="385.6" font-size="11" font-weight="400" text-anchor="end" fill="#1f2937">2,986.9</text>
<line x1="90" y1="307.2" x2="830" y2="307.2" stroke="#e5e7eb"/>
<text x="80.0" y="311.2" font-size="11" font-weight="400" text-anchor="end" fill="#1f2937">5,973.8</text>
<line x1="90" y1="232.8" x2="830" y2="232.8" stroke="#e5e7eb"/>
<text x="80.0" y="236.8" font-size="11" font-weight="400" text-anchor="end" fill="#1f2937">8,960.7</text>
<line x1="90" y1="158.4" x2="830" y2="158.4" stroke="#e5e7eb"/>
<text x="80.0" y="162.4" font-size="11" font-weight="400" text-anchor="end" fill="#1f2937">11,947.6</text>
<line x1="90" y1="84.0" x2="830" y2="84.0" stroke="#e5e7eb"/>
<text x="80.0" y="88.0" font-size="11" font-weight="400" text-anchor="end" fill="#1f2937">14,934.4</text>
<text x="90.0" y="480.0" font-size="12" font-weight="400" text-anchor="middle" fill="#1f2937">8</text>
<text x="336.7" y="480.0" font-size="12" font-weight="400" text-anchor="middle" fill="#1f2937">16</text>
<text x="583.3" y="480.0" font-size="12" font-weight="400" text-anchor="middle" fill="#1f2937">32</text>
<text x="830.0" y="480.0" font-size="12" font-weight="400" text-anchor="middle" fill="#1f2937">64</text>
<polyline points="90.0,376.9 336.7,304.0 583.3,273.9 830.0,260.2" fill="none" stroke="#2563eb" stroke-width="2.5"/>
<circle cx="90.0" cy="376.9" r="4.5" fill="#2563eb"/>
<text x="90.0" y="394.9" font-size="10" font-weight="400" text-anchor="middle" fill="#1f2937">128/128</text>
<circle cx="336.7" cy="304.0" r="4.5" fill="#2563eb"/>
<text x="336.7" y="322.0" font-size="10" font-weight="400" text-anchor="middle" fill="#1f2937">273/273</text>
<circle cx="583.3" cy="273.9" r="4.5" fill="#2563eb"/>
<text x="583.3" y="291.9" font-size="10" font-weight="400" text-anchor="middle" fill="#1f2937">346/346</text>
<circle cx="830.0" cy="260.2" r="4.5" fill="#2563eb"/>
<text x="830.0" y="278.2" font-size="10" font-weight="400" text-anchor="middle" fill="#1f2937">382/382</text>
<rect x="858" y="86" width="14" height="14" fill="#2563eb"/>
<text x="880.0" y="98.0" font-size="12" font-weight="400" text-anchor="start" fill="#1f2937">No MTP</text>
<polyline points="90.0,305.7 336.7,167.2 583.3,110.1 830.0,84.0" fill="none" stroke="#dc2626" stroke-width="2.5"/>
<circle cx="90.0" cy="305.7" r="4.5" fill="#dc2626"/>
<text x="90.0" y="293.7" font-size="10" font-weight="400" text-anchor="middle" fill="#1f2937">128/128</text>
<circle cx="336.7" cy="167.2" r="4.5" fill="#dc2626"/>
<text x="336.7" y="155.2" font-size="10" font-weight="400" text-anchor="middle" fill="#1f2937">273/273</text>
<circle cx="583.3" cy="110.1" r="4.5" fill="#dc2626"/>
<text x="583.3" y="98.1" font-size="10" font-weight="400" text-anchor="middle" fill="#1f2937">346/346</text>
<circle cx="830.0" cy="84.0" r="4.5" fill="#dc2626"/>
<text x="830.0" y="72.0" font-size="10" font-weight="400" text-anchor="middle" fill="#1f2937">382/382</text>
<rect x="858" y="110" width="14" height="14" fill="#dc2626"/>
<text x="880.0" y="122.0" font-size="12" font-weight="400" text-anchor="start" fill="#1f2937">MTP=1</text>
</svg>
