<svg xmlns="http://www.w3.org/2000/svg" width="980" height="500" viewBox="0 0 980 500">
<rect width="100%" height="100%" fill="#ffffff"/>
<text x="490.0" y="30.0" font-size="18" font-weight="700" text-anchor="middle" fill="#1f2937">Decode TPS/Card: 1M + 1K</text>
<text x="24.0" y="229.0" font-size="13" font-weight="400" text-anchor="middle" fill="#1f2937">tokens/s/card</text>
<line x1="90" y1="62" x2="90" y2="396" stroke="#374151"/>
<line x1="90" y1="396" x2="830" y2="396" stroke="#374151"/>
<line x1="90" y1="396.0" x2="830" y2="396.0" stroke="#e5e7eb"/>
<text x="80.0" y="400.0" font-size="11" font-weight="400" text-anchor="end" fill="#1f2937">0.0</text>
<line x1="90" y1="329.2" x2="830" y2="329.2" stroke="#e5e7eb"/>
<text x="80.0" y="333.2" font-size="11" font-weight="400" text-anchor="end" fill="#1f2937">229.6</text>
<line x1="90" y1="262.4" x2="830" y2="262.4" stroke="#e5e7eb"/>
<text x="80.0" y="266.4" font-size="11" font-weight="400" text-anchor="end" fill="#1f2937">459.2</text>
<line x1="90" y1="195.6" x2="830" y2="195.6" stroke="#e5e7eb"/>
<text x="80.0" y="199.6" font-size="11" font-weight="400" text-anchor="end" fill="#1f2937">688.8</text>
<line x1="90" y1="128.8" x2="830" y2="128.8" stroke="#e5e7eb"/>
<text x="80.0" y="132.8" font-size="11" font-weight="400" text-anchor="end" fill="#1f2937">918.5</text>
<line x1="90" y1="62.0" x2="830" y2="62.0" stroke="#e5e7eb"/>
<text x="80.0" y="66.0" font-size="11" font-weight="400" text-anchor="end" fill="#1f2937">1,148.1</text>
<text x="90.0" y="420.0" font-size="12" font-weight="400" text-anchor="middle" fill="#1f2937">8</text>
<text x="336.7" y="420.0" font-size="12" font-weight="400" text-anchor="middle" fill="#1f2937">16</text>
<text x="583.3" y="420.0" font-size="12" font-weight="400" text-anchor="middle" fill="#1f2937">32</text>
<text x="830.0" y="420.0" font-size="12" font-weight="400" text-anchor="middle" fill="#1f2937">64</text>
<polyline points="90.0,361.0 336.7,296.8 583.3,253.5 830.0,220.2" fill="none" stroke="#2563eb" stroke-width="2.5"/>
<circle cx="90.0" cy="361.0" r="4.5" fill="#2563eb"/>
<text x="90.0" y="349.0" font-size="10" font-weight="400" text-anchor="middle" fill="#1f2937">H4/T4</text>
<circle cx="336.7" cy="296.8" r="4.5" fill="#2563eb"/>
<text x="336.7" y="284.8" font-size="10" font-weight="400" text-anchor="middle" fill="#1f2937">H9/T9</text>
<circle cx="583.3" cy="253.5" r="4.5" fill="#2563eb"/>
<text x="583.3" y="241.5" font-size="10" font-weight="400" text-anchor="middle" fill="#1f2937">H11/T11</text>
<circle cx="830.0" cy="220.2" r="4.5" fill="#2563eb"/>
<text x="830.0" y="208.2" font-size="10" font-weight="400" text-anchor="middle" fill="#1f2937">H13/T13</text>
<rect x="858" y="64" width="14" height="14" fill="#2563eb"/>
<text x="880.0" y="76.0" font-size="12" font-weight="400" text-anchor="start" fill="#1f2937">No MTP</text>
<polyline points="90.0,329.6 336.7,207.6 583.3,125.3 830.0,62.0" fill="none" stroke="#dc2626" stroke-width="2.5"/>
<circle cx="90.0" cy="329.6" r="4.5" fill="#dc2626"/>
<text x="90.0" y="317.6" font-size="10" font-weight="400" text-anchor="middle" fill="#1f2937">H4/T4</text>
<circle cx="336.7" cy="207.6" r="4.5" fill="#dc2626"/>
<text x="336.7" y="195.6" font-size="10" font-weight="400" text-anchor="middle" fill="#1f2937">H9/T9</text>
<circle cx="583.3" cy="125.3" r="4.5" fill="#dc2626"/>
<text x="583.3" y="113.3" font-size="10" font-weight="400" text-anchor="middle" fill="#1f2937">H11/T11</text>
<circle cx="830.0" cy="62.0" r="4.5" fill="#dc2626"/>
<text x="830.0" y="50.0" font-size="10" font-weight="400" text-anchor="middle" fill="#1f2937">H13/T13</text>
<rect x="858" y="88" width="14" height="14" fill="#dc2626"/>
<text x="880.0" y="100.0" font-size="12" font-weight="400" text-anchor="start" fill="#1f2937">MTP=1</text>
</svg>
