<svg xmlns="http://www.w3.org/2000/svg" width="980" height="500" viewBox="0 0 980 500">
<rect width="100%" height="100%" fill="#ffffff"/>
<text x="490.0" y="30.0" font-size="18" font-weight="700" text-anchor="middle" fill="#1f2937">Decode TPS/Card: 32K + 1K</text>
<text x="24.0" y="229.0" font-size="13" font-weight="400" text-anchor="middle" fill="#1f2937">tokens/s/card</text>
<line x1="90" y1="62" x2="90" y2="396" stroke="#374151"/>
<line x1="90" y1="396" x2="830" y2="396" stroke="#374151"/>
<line x1="90" y1="396.0" x2="830" y2="396.0" stroke="#e5e7eb"/>
<text x="80.0" y="400.0" font-size="11" font-weight="400" text-anchor="end" fill="#1f2937">0.0</text>
<line x1="90" y1="329.2" x2="830" y2="329.2" stroke="#e5e7eb"/>
<text x="80.0" y="333.2" font-size="11" font-weight="400" text-anchor="end" fill="#1f2937">3,146.8</text>
<line x1="90" y1="262.4" x2="830" y2="262.4" stroke="#e5e7eb"/>
<text x="80.0" y="266.4" font-size="11" font-weight="400" text-anchor="end" fill="#1f2937">6,293.6</text>
<line x1="90" y1="195.6" x2="830" y2="195.6" stroke="#e5e7eb"/>
<text x="80.0" y="199.6" font-size="11" font-weight="400" text-anchor="end" fill="#1f2937">9,440.3</text>
<line x1="90" y1="128.8" x2="830" y2="128.8" stroke="#e5e7eb"/>
<text x="80.0" y="132.8" font-size="11" font-weight="400" text-anchor="end" fill="#1f2937">12,587.1</text>
<line x1="90" y1="62.0" x2="830" y2="62.0" stroke="#e5e7eb"/>
<text x="80.0" y="66.0" font-size="11" font-weight="400" text-anchor="end" fill="#1f2937">15,733.9</text>
<text x="90.0" y="420.0" font-size="12" font-weight="400" text-anchor="middle" fill="#1f2937">8</text>
<text x="336.7" y="420.0" font-size="12" font-weight="400" text-anchor="middle" fill="#1f2937">16</text>
<text x="583.3" y="420.0" font-size="12" font-weight="400" text-anchor="middle" fill="#1f2937">32</text>
<text x="830.0" y="420.0" font-size="12" font-weight="400" text-anchor="middle" fill="#1f2937">64</text>
<polyline points="90.0,327.3 336.7,261.2 583.3,233.2 830.0,220.2" fill="none" stroke="#2563eb" stroke-width="2.5"/>
<circle cx="90.0" cy="327.3" r="4.5" fill="#2563eb"/>
<text x="90.0" y="315.3" font-size="10" font-weight="400" text-anchor="middle" fill="#1f2937">H128/T128</text>
<circle cx="336.7" cy="261.2" r="4.5" fill="#2563eb"/>
<text x="336.7" y="249.2" font-size="10" font-weight="400" text-anchor="middle" fill="#1f2937">H273/T273</text>
<circle cx="583.3" cy="233.2" r="4.5" fill="#2563eb"/>
<text x="583.3" y="221.2" font-size="10" font-weight="400" text-anchor="middle" fill="#1f2937">H346/T346</text>
<circle cx="830.0" cy="220.2" r="4.5" fill="#2563eb"/>
<text x="830.0" y="208.2" font-size="10" font-weight="400" text-anchor="middle" fill="#1f2937">H382/T382</text>
<rect x="858" y="64" width="14" height="14" fill="#2563eb"/>
<text x="880.0" y="76.0" font-size="12" font-weight="400" text-anchor="start" fill="#1f2937">No MTP</text>
<polyline points="90.0,265.4 336.7,139.8 583.3,86.6 830.0,62.0" fill="none" stroke="#dc2626" stroke-width="2.5"/>
<circle cx="90.0" cy="265.4" r="4.5" fill="#dc2626"/>
<text x="90.0" y="253.4" font-size="10" font-weight="400" text-anchor="middle" fill="#1f2937">H128/T128</text>
<circle cx="336.7" cy="139.8" r="4.5" fill="#dc2626"/>
<text x="336.7" y="127.8" font-size="10" font-weight="400" text-anchor="middle" fill="#1f2937">H273/T273</text>
<circle cx="583.3" cy="86.6" r="4.5" fill="#dc2626"/>
<text x="583.3" y="74.6" font-size="10" font-weight="400" text-anchor="middle" fill="#1f2937">H346/T346</text>
<circle cx="830.0" cy="62.0" r="4.5" fill="#dc2626"/>
<text x="830.0" y="50.0" font-size="10" font-weight="400" text-anchor="middle" fill="#1f2937">H382/T382</text>
<rect x="858" y="88" width="14" height="14" fill="#dc2626"/>
<text x="880.0" y="100.0" font-size="12" font-weight="400" text-anchor="start" fill="#1f2937">MTP=1</text>
</svg>
