<svg xmlns="http://www.w3.org/2000/svg" width="1080" height="520" viewBox="0 0 1080 520">
<rect width="100%" height="100%" fill="#ffffff"/>
<text x="540.0" y="30.0" font-size="18" font-weight="700" text-anchor="middle" fill="#1f2937">P/D Total Card Composition</text>
<line x1="90" y1="62" x2="90" y2="408" stroke="#374151"/>
<line x1="90" y1="408" x2="1020" y2="408" stroke="#374151"/>
<line x1="90" y1="408.0" x2="1020" y2="408.0" stroke="#e5e7eb"/>
<text x="80.0" y="412.0" font-size="11" font-weight="400" text-anchor="end" fill="#1f2937">0</text>
<line x1="90" y1="338.8" x2="1020" y2="338.8" stroke="#e5e7eb"/>
<text x="80.0" y="342.8" font-size="11" font-weight="400" text-anchor="end" fill="#1f2937">16,576</text>
<line x1="90" y1="269.6" x2="1020" y2="269.6" stroke="#e5e7eb"/>
<text x="80.0" y="273.6" font-size="11" font-weight="400" text-anchor="end" fill="#1f2937">33,152</text>
<line x1="90" y1="200.4" x2="1020" y2="200.4" stroke="#e5e7eb"/>
<text x="80.0" y="204.4" font-size="11" font-weight="400" text-anchor="end" fill="#1f2937">49,728</text>
<line x1="90" y1="131.2" x2="1020" y2="131.2" stroke="#e5e7eb"/>
<text x="80.0" y="135.2" font-size="11" font-weight="400" text-anchor="end" fill="#1f2937">66,304</text>
<line x1="90" y1="62.0" x2="1020" y2="62.0" stroke="#e5e7eb"/>
<text x="80.0" y="66.0" font-size="11" font-weight="400" text-anchor="end" fill="#1f2937">82,880</text>
<rect x="98.5" y="401.6" width="21.7" height="6.1" fill="#2563eb"/>
<rect x="98.5" y="407.7" width="21.7" height="0.3" fill="#dc2626"/>
<text x="109.4" y="393.6" font-size="10" font-weight="400" text-anchor="middle" fill="#1f2937">1,528</text>
<text x="109.4" y="430.0" font-size="9" font-weight="400" text-anchor="middle" fill="#1f2937">8K + 1K</text>
<text x="109.4" y="446.0" font-size="9" font-weight="400" text-anchor="middle" fill="#1f2937">h=0</text>
<text x="109.4" y="462.0" font-size="9" font-weight="400" text-anchor="middle" fill="#1f2937">No MTP</text>
<rect x="137.3" y="395.6" width="21.7" height="12.1" fill="#2563eb"/>
<rect x="137.3" y="407.7" width="21.7" height="0.3" fill="#dc2626"/>
<text x="148.1" y="387.6" font-size="10" font-weight="400" text-anchor="middle" fill="#1f2937">2,960</text>
<text x="148.1" y="430.0" font-size="9" font-weight="400" text-anchor="middle" fill="#1f2937">8K + 1K</text>
<text x="148.1" y="446.0" font-size="9" font-weight="400" text-anchor="middle" fill="#1f2937">h=0</text>
<text x="148.1" y="462.0" font-size="9" font-weight="400" text-anchor="middle" fill="#1f2937">MTP=1</text>
<rect x="176.0" y="406.3" width="21.7" height="1.4" fill="#2563eb"/>
<rect x="176.0" y="407.7" width="21.7" height="0.3" fill="#dc2626"/>
<text x="186.9" y="398.3" font-size="10" font-weight="400" text-anchor="middle" fill="#1f2937">400</text>
<text x="186.9" y="430.0" font-size="9" font-weight="400" text-anchor="middle" fill="#1f2937">8K + 1K</text>
<text x="186.9" y="446.0" font-size="9" font-weight="400" text-anchor="middle" fill="#1f2937">h=0.9</text>
<text x="186.9" y="462.0" font-size="9" font-weight="400" text-anchor="middle" fill="#1f2937">No MTP</text>
<rect x="214.8" y="405.0" width="21.7" height="2.7" fill="#2563eb"/>
<rect x="214.8" y="407.7" width="21.7" height="0.3" fill="#dc2626"/>
<text x="225.6" y="397.0" font-size="10" font-weight="400" text-anchor="middle" fill="#1f2937">720</text>
<text x="225.6" y="430.0" font-size="9" font-weight="400" text-anchor="middle" fill="#1f2937">8K + 1K</text>
<text x="225.6" y="446.0" font-size="9" font-weight="400" text-anchor="middle" fill="#1f2937">h=0.9</text>
<text x="225.6" y="462.0" font-size="9" font-weight="400" text-anchor="middle" fill="#1f2937">MTP=1</text>
<rect x="253.5" y="406.8" width="21.7" height="1.0" fill="#2563eb"/>
<rect x="253.5" y="407.7" width="21.7" height="0.3" fill="#dc2626"/>
<text x="264.4" y="398.8" font-size="10" font-weight="400" text-anchor="middle" fill="#1f2937">296</text>
<text x="264.4" y="430.0" font-size="9" font-weight="400" text-anchor="middle" fill="#1f2937">8K + 1K</text>
<text x="264.4" y="446.0" font-size="9" font-weight="400" text-anchor="middle" fill="#1f2937">h=0.99</text>
<text x="264.4" y="462.0" font-size="9" font-weight="400" text-anchor="middle" fill="#1f2937">No MTP</text>
<rect x="292.3" y="405.8" width="21.7" height="1.9" fill="#2563eb"/>
<rect x="292.3" y="407.7" width="21.7" height="0.3" fill="#dc2626"/>
<text x="303.1" y="397.8" font-size="10" font-weight="400" text-anchor="middle" fill="#1f2937">520</text>
<text x="303.1" y="430.0" font-size="9" font-weight="400" text-anchor="middle" fill="#1f2937">8K + 1K</text>
<text x="303.1" y="446.0" font-size="9" font-weight="400" text-anchor="middle" fill="#1f2937">h=0.99</text>
<text x="303.1" y="462.0" font-size="9" font-weight="400" text-anchor="middle" fill="#1f2937">MTP=1</text>
<rect x="331.0" y="389.4" width="21.7" height="18.3" fill="#2563eb"/>
<rect x="331.0" y="407.7" width="21.7" height="0.3" fill="#dc2626"/>
<text x="341.9" y="381.4" font-size="10" font-weight="400" text-anchor="middle" fill="#1f2937">4,448</text>
<text x="341.9" y="430.0" font-size="9" font-weight="400" text-anchor="middle" fill="#1f2937">32K + 1K</text>
<text x="341.9" y="446.0" font-size="9" font-weight="400" text-anchor="middle" fill="#1f2937">h=0</text>
<text x="341.9" y="462.0" font-size="9" font-weight="400" text-anchor="middle" fill="#1f2937">No MTP</text>
<rect x="369.8" y="373.0" width="21.7" height="34.7" fill="#2563eb"/>
<rect x="369.8" y="407.7" width="21.7" height="0.3" fill="#dc2626"/>
<text x="380.6" y="365.0" font-size="10" font-weight="400" text-anchor="middle" fill="#1f2937">8,384</text>
<text x="380.6" y="430.0" font-size="9" font-weight="400" text-anchor="middle" fill="#1f2937">32K + 1K</text>
<text x="380.6" y="446.0" font-size="9" font-weight="400" text-anchor="middle" fill="#1f2937">h=0</text>
<text x="380.6" y="462.0" font-size="9" font-weight="400" text-anchor="middle" fill="#1f2937">MTP=1</text>
<rect x="408.5" y="405.5" width="21.7" height="2.3" fill="#2563eb"/>
<rect x="408.5" y="407.7" width="21.7" height="0.3" fill="#dc2626"/>
<text x="419.4" y="397.5" font-size="10" font-weight="400" text-anchor="middle" fill="#1f2937">608</text>
<text x="419.4" y="430.0" font-size="9" font-weight="400" text-anchor="middle" fill="#1f2937">32K + 1K</text>
<text x="419.4" y="446.0" font-size="9" font-weight="400" text-anchor="middle" fill="#1f2937">h=0.9</text>
<text x="419.4" y="462.0" font-size="9" font-weight="400" text-anchor="middle" fill="#1f2937">No MTP</text>
<rect x="447.3" y="403.5" width="21.7" height="4.3" fill="#2563eb"/>
<rect x="447.3" y="407.7" width="21.7" height="0.3" fill="#dc2626"/>
<text x="458.1" y="395.5" font-size="10" font-weight="400" text-anchor="middle" fill="#1f2937">1,088</text>
<text x="458.1" y="430.0" font-size="9" font-weight="400" text-anchor="middle" fill="#1f2937">32K + 1K</text>
<text x="458.1" y="446.0" font-size="9" font-weight="400" text-anchor="middle" fill="#1f2937">h=0.9</text>
<text x="458.1" y="462.0" font-size="9" font-weight="400" text-anchor="middle" fill="#1f2937">MTP=1</text>
<rect x="486.0" y="406.9" width="21.7" height="0.8" fill="#2563eb"/>
<rect x="486.0" y="407.7" width="21.7" height="0.3" fill="#dc2626"/>
<text x="496.9" y="398.9" font-size="10" font-weight="400" text-anchor="middle" fill="#1f2937">264</text>
<text x="496.9" y="430.0" font-size="9" font-weight="400" text-anchor="middle" fill="#1f2937">32K + 1K</text>
<text x="496.9" y="446.0" font-size="9" font-weight="400" text-anchor="middle" fill="#1f2937">h=0.99</text>
<text x="496.9" y="462.0" font-size="9" font-weight="400" text-anchor="middle" fill="#1f2937">No MTP</text>
<rect x="524.8" y="406.2" width="21.7" height="1.6" fill="#2563eb"/>
<rect x="524.8" y="407.7" width="21.7" height="0.3" fill="#dc2626"/>
<text x="535.6" y="398.2" font-size="10" font-weight="400" text-anchor="middle" fill="#1f2937">440</text>
<text x="535.6" y="430.0" font-size="9" font-weight="400" text-anchor="middle" fill="#1f2937">32K + 1K</text>
<text x="535.6" y="446.0" font-size="9" font-weight="400" text-anchor="middle" fill="#1f2937">h=0.99</text>
<text x="535.6" y="462.0" font-size="9" font-weight="400" text-anchor="middle" fill="#1f2937">MTP=1</text>
<rect x="563.5" y="363.6" width="21.7" height="44.1" fill="#2563eb"/>
<rect x="563.5" y="407.7" width="21.7" height="0.3" fill="#dc2626"/>
<text x="574.4" y="355.6" font-size="10" font-weight="400" text-anchor="middle" fill="#1f2937">10,624</text>
<text x="574.4" y="430.0" font-size="9" font-weight="400" text-anchor="middle" fill="#1f2937">128K + 1K</text>
<text x="574.4" y="446.0" font-size="9" font-weight="400" text-anchor="middle" fill="#1f2937">h=0</text>
<text x="574.4" y="462.0" font-size="9" font-weight="400" text-anchor="middle" fill="#1f2937">No MTP</text>
<rect x="602.3" y="324.0" width="21.7" height="83.8" fill="#2563eb"/>
<rect x="602.3" y="407.7" width="21.7" height="0.3" fill="#dc2626"/>
<text x="613.1" y="316.0" font-size="10" font-weight="400" text-anchor="middle" fill="#1f2937">20,128</text>
<text x="613.1" y="430.0" font-size="9" font-weight="400" text-anchor="middle" fill="#1f2937">128K + 1K</text>
<text x="613.1" y="446.0" font-size="9" font-weight="400" text-anchor="middle" fill="#1f2937">h=0</text>
<text x="613.1" y="462.0" font-size="9" font-weight="400" text-anchor="middle" fill="#1f2937">MTP=1</text>
<rect x="641.0" y="404.5" width="21.7" height="3.3" fill="#2563eb"/>
<rect x="641.0" y="407.7" width="21.7" height="0.3" fill="#dc2626"/>
<text x="651.9" y="396.5" font-size="10" font-weight="400" text-anchor="middle" fill="#1f2937">848</text>
<text x="651.9" y="430.0" font-size="9" font-weight="400" text-anchor="middle" fill="#1f2937">128K + 1K</text>
<text x="651.9" y="446.0" font-size="9" font-weight="400" text-anchor="middle" fill="#1f2937">h=0.9</text>
<text x="651.9" y="462.0" font-size="9" font-weight="400" text-anchor="middle" fill="#1f2937">No MTP</text>
<rect x="679.8" y="401.6" width="21.7" height="6.2" fill="#2563eb"/>
<rect x="679.8" y="407.7" width="21.7" height="0.3" fill="#dc2626"/>
<text x="690.6" y="393.6" font-size="10" font-weight="400" text-anchor="middle" fill="#1f2937">1,544</text>
<text x="690.6" y="430.0" font-size="9" font-weight="400" text-anchor="middle" fill="#1f2937">128K + 1K</text>
<text x="690.6" y="446.0" font-size="9" font-weight="400" text-anchor="middle" fill="#1f2937">h=0.9</text>
<text x="690.6" y="462.0" font-size="9" font-weight="400" text-anchor="middle" fill="#1f2937">MTP=1</text>
<rect x="718.5" y="407.1" width="21.7" height="0.6" fill="#2563eb"/>
<rect x="718.5" y="407.7" width="21.7" height="0.3" fill="#dc2626"/>
<text x="729.4" y="399.1" font-size="10" font-weight="400" text-anchor="middle" fill="#1f2937">208</text>
<text x="729.4" y="430.0" font-size="9" font-weight="400" text-anchor="middle" fill="#1f2937">128K + 1K</text>
<text x="729.4" y="446.0" font-size="9" font-weight="400" text-anchor="middle" fill="#1f2937">h=0.99</text>
<text x="729.4" y="462.0" font-size="9" font-weight="400" text-anchor="middle" fill="#1f2937">No MTP</text>
<rect x="757.3" y="406.6" width="21.7" height="1.1" fill="#2563eb"/>
<rect x="757.3" y="407.7" width="21.7" height="0.3" fill="#dc2626"/>
<text x="768.1" y="398.6" font-size="10" font-weight="400" text-anchor="middle" fill="#1f2937">336</text>
<text x="768.1" y="430.0" font-size="9" font-weight="400" text-anchor="middle" fill="#1f2937">128K + 1K</text>
<text x="768.1" y="446.0" font-size="9" font-weight="400" text-anchor="middle" fill="#1f2937">h=0.99</text>
<text x="768.1" y="462.0" font-size="9" font-weight="400" text-anchor="middle" fill="#1f2937">MTP=1</text>
<rect x="796.0" y="225.7" width="21.7" height="182.0" fill="#2563eb"/>
<rect x="796.0" y="407.7" width="21.7" height="0.3" fill="#dc2626"/>
<text x="806.9" y="217.7" font-size="10" font-weight="400" text-anchor="middle" fill="#1f2937">43,656</text>
<text x="806.9" y="430.0" font-size="9" font-weight="400" text-anchor="middle" fill="#1f2937">1M + 1K</text>
<text x="806.9" y="446.0" font-size="9" font-weight="400" text-anchor="middle" fill="#1f2937">h=0</text>
<text x="806.9" y="462.0" font-size="9" font-weight="400" text-anchor="middle" fill="#1f2937">No MTP</text>
<rect x="834.8" y="62.0" width="21.7" height="345.7" fill="#2563eb"/>
<rect x="834.8" y="407.7" width="21.7" height="0.3" fill="#dc2626"/>
<text x="845.6" y="54.0" font-size="10" font-weight="400" text-anchor="middle" fill="#1f2937">82,880</text>
<text x="845.6" y="430.0" font-size="9" font-weight="400" text-anchor="middle" fill="#1f2937">1M + 1K</text>
<text x="845.6" y="446.0" font-size="9" font-weight="400" text-anchor="middle" fill="#1f2937">h=0</text>
<text x="845.6" y="462.0" font-size="9" font-weight="400" text-anchor="middle" fill="#1f2937">MTP=1</text>
<rect x="873.5" y="402.7" width="21.7" height="5.0" fill="#2563eb"/>
<rect x="873.5" y="407.7" width="21.7" height="0.3" fill="#dc2626"/>
<text x="884.4" y="394.7" font-size="10" font-weight="400" text-anchor="middle" fill="#1f2937">1,264</text>
<text x="884.4" y="430.0" font-size="9" font-weight="400" text-anchor="middle" fill="#1f2937">1M + 1K</text>
<text x="884.4" y="446.0" font-size="9" font-weight="400" text-anchor="middle" fill="#1f2937">h=0.9</text>
<text x="884.4" y="462.0" font-size="9" font-weight="400" text-anchor="middle" fill="#1f2937">No MTP</text>
<rect x="912.3" y="398.2" width="21.7" height="9.5" fill="#2563eb"/>
<rect x="912.3" y="407.7" width="21.7" height="0.3" fill="#dc2626"/>
<text x="923.1" y="390.2" font-size="10" font-weight="400" text-anchor="middle" fill="#1f2937">2,344</text>
<text x="923.1" y="430.0" font-size="9" font-weight="400" text-anchor="middle" fill="#1f2937">1M + 1K</text>
<text x="923.1" y="446.0" font-size="9" font-weight="400" text-anchor="middle" fill="#1f2937">h=0.9</text>
<text x="923.1" y="462.0" font-size="9" font-weight="400" text-anchor="middle" fill="#1f2937">MTP=1</text>
<rect x="951.0" y="407.3" width="21.7" height="0.4" fill="#2563eb"/>
<rect x="951.0" y="407.7" width="21.7" height="0.3" fill="#dc2626"/>
<text x="961.9" y="399.3" font-size="10" font-weight="400" text-anchor="middle" fill="#1f2937">168</text>
<text x="961.9" y="430.0" font-size="9" font-weight="400" text-anchor="middle" fill="#1f2937">1M + 1K</text>
<text x="961.9" y="446.0" font-size="9" font-weight="400" text-anchor="middle" fill="#1f2937">h=0.99</text>
<text x="961.9" y="462.0" font-size="9" font-weight="400" text-anchor="middle" fill="#1f2937">No MTP</text>
<rect x="989.8" y="406.9" width="21.7" height="0.8" fill="#2563eb"/>
<rect x="989.8" y="407.7" width="21.7" height="0.3" fill="#dc2626"/>
<text x="1000.6" y="398.9" font-size="10" font-weight="400" text-anchor="middle" fill="#1f2937">256</text>
<text x="1000.6" y="430.0" font-size="9" font-weight="400" text-anchor="middle" fill="#1f2937">1M + 1K</text>
<text x="1000.6" y="446.0" font-size="9" font-weight="400" text-anchor="middle" fill="#1f2937">h=0.99</text>
<text x="1000.6" y="462.0" font-size="9" font-weight="400" text-anchor="middle" fill="#1f2937">MTP=1</text>
<rect x="910" y="70" width="14" height="14" fill="#2563eb"/>
<text x="930.0" y="82.0" font-size="12" font-weight="400" text-anchor="start" fill="#1f2937">Prefill cards</text>
<rect x="910" y="96" width="14" height="14" fill="#dc2626"/>
<text x="930.0" y="108.0" font-size="12" font-weight="400" text-anchor="start" fill="#1f2937">Decode cards</text>
</svg>
