<svg xmlns="http://www.w3.org/2000/svg" width="1600" height="520" viewBox="0 0 1600 520">
<rect width="100%" height="100%" fill="#ffffff"/>
<text x="800.0" y="30.0" font-size="18" font-weight="700" text-anchor="middle" fill="#1f2937">P/D Total Card Composition</text>
<line x1="90" y1="62" x2="90" y2="408" stroke="#374151"/>
<line x1="90" y1="408" x2="1540" y2="408" stroke="#374151"/>
<line x1="90" y1="408.0" x2="1540" y2="408.0" stroke="#e5e7eb"/>
<text x="80.0" y="412.0" font-size="11" font-weight="400" text-anchor="end" fill="#1f2937">0</text>
<line x1="90" y1="338.8" x2="1540" y2="338.8" stroke="#e5e7eb"/>
<text x="80.0" y="342.8" font-size="11" font-weight="400" text-anchor="end" fill="#1f2937">1,640</text>
<line x1="90" y1="269.6" x2="1540" y2="269.6" stroke="#e5e7eb"/>
<text x="80.0" y="273.6" font-size="11" font-weight="400" text-anchor="end" fill="#1f2937">3,280</text>
<line x1="90" y1="200.4" x2="1540" y2="200.4" stroke="#e5e7eb"/>
<text x="80.0" y="204.4" font-size="11" font-weight="400" text-anchor="end" fill="#1f2937">4,920</text>
<line x1="90" y1="131.2" x2="1540" y2="131.2" stroke="#e5e7eb"/>
<text x="80.0" y="135.2" font-size="11" font-weight="400" text-anchor="end" fill="#1f2937">6,560</text>
<line x1="90" y1="62.0" x2="1540" y2="62.0" stroke="#e5e7eb"/>
<text x="80.0" y="66.0" font-size="11" font-weight="400" text-anchor="end" fill="#1f2937">8,200</text>
<rect x="107.7" y="399.2" width="45.1" height="0.7" fill="#2563eb"/>
<rect x="107.7" y="399.9" width="45.1" height="8.1" fill="#dc2626"/>
<text x="130.3" y="391.2" font-size="10" font-weight="400" text-anchor="middle" fill="#1f2937">208</text>
<text x="130.3" y="430.0" font-size="9" font-weight="400" text-anchor="middle" fill="#1f2937">8K + 1K</text>
<text x="130.3" y="446.0" font-size="9" font-weight="400" text-anchor="middle" fill="#1f2937">h=0</text>
<text x="130.3" y="462.0" font-size="9" font-weight="400" text-anchor="middle" fill="#1f2937">No MTP</text>
<rect x="188.3" y="397.9" width="45.1" height="7.4" fill="#2563eb"/>
<rect x="188.3" y="405.3" width="45.1" height="2.7" fill="#dc2626"/>
<text x="210.8" y="389.9" font-size="10" font-weight="400" text-anchor="middle" fill="#1f2937">240</text>
<text x="210.8" y="430.0" font-size="9" font-weight="400" text-anchor="middle" fill="#1f2937">8K + 1K</text>
<text x="210.8" y="446.0" font-size="9" font-weight="400" text-anchor="middle" fill="#1f2937">h=0</text>
<text x="210.8" y="462.0" font-size="9" font-weight="400" text-anchor="middle" fill="#1f2937">MTP=1</text>
<rect x="268.8" y="372.6" width="45.1" height="0.3" fill="#2563eb"/>
<rect x="268.8" y="372.9" width="45.1" height="35.1" fill="#dc2626"/>
<text x="291.4" y="364.6" font-size="10" font-weight="400" text-anchor="middle" fill="#1f2937">840</text>
<text x="291.4" y="430.0" font-size="9" font-weight="400" text-anchor="middle" fill="#1f2937">8K + 1K</text>
<text x="291.4" y="446.0" font-size="9" font-weight="400" text-anchor="middle" fill="#1f2937">h=0.9</text>
<text x="291.4" y="462.0" font-size="9" font-weight="400" text-anchor="middle" fill="#1f2937">No MTP</text>
<rect x="349.4" y="400.9" width="45.1" height="1.7" fill="#2563eb"/>
<rect x="349.4" y="402.6" width="45.1" height="5.4" fill="#dc2626"/>
<text x="371.9" y="392.9" font-size="10" font-weight="400" text-anchor="middle" fill="#1f2937">168</text>
<text x="371.9" y="430.0" font-size="9" font-weight="400" text-anchor="middle" fill="#1f2937">8K + 1K</text>
<text x="371.9" y="446.0" font-size="9" font-weight="400" text-anchor="middle" fill="#1f2937">h=0.9</text>
<text x="371.9" y="462.0" font-size="9" font-weight="400" text-anchor="middle" fill="#1f2937">MTP=1</text>
<rect x="429.9" y="62.0" width="45.1" height="0.3" fill="#2563eb"/>
<rect x="429.9" y="62.3" width="45.1" height="345.7" fill="#dc2626"/>
<text x="452.5" y="54.0" font-size="10" font-weight="400" text-anchor="middle" fill="#1f2937">8,200</text>
<text x="452.5" y="430.0" font-size="9" font-weight="400" text-anchor="middle" fill="#1f2937">8K + 1K</text>
<text x="452.5" y="446.0" font-size="9" font-weight="400" text-anchor="middle" fill="#1f2937">h=0.99</text>
<text x="452.5" y="462.0" font-size="9" font-weight="400" text-anchor="middle" fill="#1f2937">No MTP</text>
<rect x="510.5" y="396.9" width="45.1" height="0.3" fill="#2563eb"/>
<rect x="510.5" y="397.2" width="45.1" height="10.8" fill="#dc2626"/>
<text x="533.1" y="388.9" font-size="10" font-weight="400" text-anchor="middle" fill="#1f2937">264</text>
<text x="533.1" y="430.0" font-size="9" font-weight="400" text-anchor="middle" fill="#1f2937">8K + 1K</text>
<text x="533.1" y="446.0" font-size="9" font-weight="400" text-anchor="middle" fill="#1f2937">h=0.99</text>
<text x="533.1" y="462.0" font-size="9" font-weight="400" text-anchor="middle" fill="#1f2937">MTP=1</text>
<rect x="591.1" y="401.6" width="45.1" height="1.0" fill="#2563eb"/>
<rect x="591.1" y="402.6" width="45.1" height="5.4" fill="#dc2626"/>
<text x="613.6" y="393.6" font-size="10" font-weight="400" text-anchor="middle" fill="#1f2937">152</text>
<text x="613.6" y="430.0" font-size="9" font-weight="400" text-anchor="middle" fill="#1f2937">32K + 1K</text>
<text x="613.6" y="446.0" font-size="9" font-weight="400" text-anchor="middle" fill="#1f2937">h=0</text>
<text x="613.6" y="462.0" font-size="9" font-weight="400" text-anchor="middle" fill="#1f2937">No MTP</text>
<rect x="671.6" y="384.7" width="45.1" height="20.6" fill="#2563eb"/>
<rect x="671.6" y="405.3" width="45.1" height="2.7" fill="#dc2626"/>
<text x="694.2" y="376.7" font-size="10" font-weight="400" text-anchor="middle" fill="#1f2937">552</text>
<text x="694.2" y="430.0" font-size="9" font-weight="400" text-anchor="middle" fill="#1f2937">32K + 1K</text>
<text x="694.2" y="446.0" font-size="9" font-weight="400" text-anchor="middle" fill="#1f2937">h=0</text>
<text x="694.2" y="462.0" font-size="9" font-weight="400" text-anchor="middle" fill="#1f2937">MTP=1</text>
<rect x="752.2" y="388.8" width="45.1" height="0.3" fill="#2563eb"/>
<rect x="752.2" y="389.1" width="45.1" height="18.9" fill="#dc2626"/>
<text x="774.7" y="380.8" font-size="10" font-weight="400" text-anchor="middle" fill="#1f2937">456</text>
<text x="774.7" y="430.0" font-size="9" font-weight="400" text-anchor="middle" fill="#1f2937">32K + 1K</text>
<text x="774.7" y="446.0" font-size="9" font-weight="400" text-anchor="middle" fill="#1f2937">h=0.9</text>
<text x="774.7" y="462.0" font-size="9" font-weight="400" text-anchor="middle" fill="#1f2937">No MTP</text>
<rect x="832.7" y="403.3" width="45.1" height="2.0" fill="#2563eb"/>
<rect x="832.7" y="405.3" width="45.1" height="2.7" fill="#dc2626"/>
<text x="855.3" y="395.3" font-size="10" font-weight="400" text-anchor="middle" fill="#1f2937">112</text>
<text x="855.3" y="430.0" font-size="9" font-weight="400" text-anchor="middle" fill="#1f2937">32K + 1K</text>
<text x="855.3" y="446.0" font-size="9" font-weight="400" text-anchor="middle" fill="#1f2937">h=0.9</text>
<text x="855.3" y="462.0" font-size="9" font-weight="400" text-anchor="middle" fill="#1f2937">MTP=1</text>
<rect x="913.3" y="234.8" width="45.1" height="0.3" fill="#2563eb"/>
<rect x="913.3" y="235.2" width="45.1" height="172.8" fill="#dc2626"/>
<text x="935.8" y="226.8" font-size="10" font-weight="400" text-anchor="middle" fill="#1f2937">4,104</text>
<text x="935.8" y="430.0" font-size="9" font-weight="400" text-anchor="middle" fill="#1f2937">32K + 1K</text>
<text x="935.8" y="446.0" font-size="9" font-weight="400" text-anchor="middle" fill="#1f2937">h=0.99</text>
<text x="935.8" y="462.0" font-size="9" font-weight="400" text-anchor="middle" fill="#1f2937">No MTP</text>
<rect x="993.8" y="399.2" width="45.1" height="0.7" fill="#2563eb"/>
<rect x="993.8" y="399.9" width="45.1" height="8.1" fill="#dc2626"/>
<text x="1016.4" y="391.2" font-size="10" font-weight="400" text-anchor="middle" fill="#1f2937">208</text>
<text x="1016.4" y="430.0" font-size="9" font-weight="400" text-anchor="middle" fill="#1f2937">32K + 1K</text>
<text x="1016.4" y="446.0" font-size="9" font-weight="400" text-anchor="middle" fill="#1f2937">h=0.99</text>
<text x="1016.4" y="462.0" font-size="9" font-weight="400" text-anchor="middle" fill="#1f2937">MTP=1</text>
<rect x="1074.4" y="361.8" width="45.1" height="43.5" fill="#2563eb"/>
<rect x="1074.4" y="405.3" width="45.1" height="2.7" fill="#dc2626"/>
<text x="1096.9" y="353.8" font-size="10" font-weight="400" text-anchor="middle" fill="#1f2937">1,096</text>
<text x="1096.9" y="430.0" font-size="9" font-weight="400" text-anchor="middle" fill="#1f2937">128K + 1K</text>
<text x="1096.9" y="446.0" font-size="9" font-weight="400" text-anchor="middle" fill="#1f2937">h=0</text>
<text x="1096.9" y="462.0" font-size="9" font-weight="400" text-anchor="middle" fill="#1f2937">MTP=1</text>
<rect x="1154.9" y="401.9" width="45.1" height="3.4" fill="#2563eb"/>
<rect x="1154.9" y="405.3" width="45.1" height="2.7" fill="#dc2626"/>
<text x="1177.5" y="393.9" font-size="10" font-weight="400" text-anchor="middle" fill="#1f2937">144</text>
<text x="1177.5" y="430.0" font-size="9" font-weight="400" text-anchor="middle" fill="#1f2937">128K + 1K</text>
<text x="1177.5" y="446.0" font-size="9" font-weight="400" text-anchor="middle" fill="#1f2937">h=0.9</text>
<text x="1177.5" y="462.0" font-size="9" font-weight="400" text-anchor="middle" fill="#1f2937">MTP=1</text>
<rect x="1235.5" y="405.0" width="45.1" height="0.3" fill="#2563eb"/>
<rect x="1235.5" y="405.3" width="45.1" height="2.7" fill="#dc2626"/>
<text x="1258.1" y="397.0" font-size="10" font-weight="400" text-anchor="middle" fill="#1f2937">72</text>
<text x="1258.1" y="430.0" font-size="9" font-weight="400" text-anchor="middle" fill="#1f2937">128K + 1K</text>
<text x="1258.1" y="446.0" font-size="9" font-weight="400" text-anchor="middle" fill="#1f2937">h=0.99</text>
<text x="1258.1" y="462.0" font-size="9" font-weight="400" text-anchor="middle" fill="#1f2937">MTP=1</text>
<rect x="1316.1" y="224.7" width="45.1" height="180.6" fill="#2563eb"/>
<rect x="1316.1" y="405.3" width="45.1" height="2.7" fill="#dc2626"/>
<text x="1338.6" y="216.7" font-size="10" font-weight="400" text-anchor="middle" fill="#1f2937">4,344</text>
<text x="1338.6" y="430.0" font-size="9" font-weight="400" text-anchor="middle" fill="#1f2937">1M + 1K</text>
<text x="1338.6" y="446.0" font-size="9" font-weight="400" text-anchor="middle" fill="#1f2937">h=0</text>
<text x="1338.6" y="462.0" font-size="9" font-weight="400" text-anchor="middle" fill="#1f2937">MTP=1</text>
<rect x="1396.6" y="400.2" width="45.1" height="5.1" fill="#2563eb"/>
<rect x="1396.6" y="405.3" width="45.1" height="2.7" fill="#dc2626"/>
<text x="1419.2" y="392.2" font-size="10" font-weight="400" text-anchor="middle" fill="#1f2937">184</text>
<text x="1419.2" y="430.0" font-size="9" font-weight="400" text-anchor="middle" fill="#1f2937">1M + 1K</text>
<text x="1419.2" y="446.0" font-size="9" font-weight="400" text-anchor="middle" fill="#1f2937">h=0.9</text>
<text x="1419.2" y="462.0" font-size="9" font-weight="400" text-anchor="middle" fill="#1f2937">MTP=1</text>
<rect x="1477.2" y="398.5" width="45.1" height="1.4" fill="#2563eb"/>
<rect x="1477.2" y="399.9" width="45.1" height="8.1" fill="#dc2626"/>
<text x="1499.7" y="390.5" font-size="10" font-weight="400" text-anchor="middle" fill="#1f2937">224</text>
<text x="1499.7" y="430.0" font-size="9" font-weight="400" text-anchor="middle" fill="#1f2937">1M + 1K</text>
<text x="1499.7" y="446.0" font-size="9" font-weight="400" text-anchor="middle" fill="#1f2937">h=0.99</text>
<text x="1499.7" y="462.0" font-size="9" font-weight="400" text-anchor="middle" fill="#1f2937">MTP=1</text>
<rect x="1430" y="70" width="14" height="14" fill="#2563eb"/>
<text x="1450.0" y="82.0" font-size="12" font-weight="400" text-anchor="start" fill="#1f2937">Prefill cards</text>
<rect x="1430" y="96" width="14" height="14" fill="#dc2626"/>
<text x="1450.0" y="108.0" font-size="12" font-weight="400" text-anchor="start" fill="#1f2937">Decode cards</text>
</svg>
