<svg xmlns="http://www.w3.org/2000/svg" width="1600" height="520" viewBox="0 0 1600 520">
<rect width="100%" height="100%" fill="#ffffff"/>
<text x="800.0" y="30.0" font-size="18" font-weight="700" text-anchor="middle" fill="#1f2937">P/D Total Card Composition</text>
<line x1="90" y1="62" x2="90" y2="408" stroke="#374151"/>
<line x1="90" y1="408" x2="1540" y2="408" stroke="#374151"/>
<line x1="90" y1="408.0" x2="1540" y2="408.0" stroke="#e5e7eb"/>
<text x="80.0" y="412.0" font-size="11" font-weight="400" text-anchor="end" fill="#1f2937">0</text>
<line x1="90" y1="338.8" x2="1540" y2="338.8" stroke="#e5e7eb"/>
<text x="80.0" y="342.8" font-size="11" font-weight="400" text-anchor="end" fill="#1f2937">352</text>
<line x1="90" y1="269.6" x2="1540" y2="269.6" stroke="#e5e7eb"/>
<text x="80.0" y="273.6" font-size="11" font-weight="400" text-anchor="end" fill="#1f2937">704</text>
<line x1="90" y1="200.4" x2="1540" y2="200.4" stroke="#e5e7eb"/>
<text x="80.0" y="204.4" font-size="11" font-weight="400" text-anchor="end" fill="#1f2937">1,056</text>
<line x1="90" y1="131.2" x2="1540" y2="131.2" stroke="#e5e7eb"/>
<text x="80.0" y="135.2" font-size="11" font-weight="400" text-anchor="end" fill="#1f2937">1,408</text>
<line x1="90" y1="62.0" x2="1540" y2="62.0" stroke="#e5e7eb"/>
<text x="80.0" y="66.0" font-size="11" font-weight="400" text-anchor="end" fill="#1f2937">1,760</text>
<rect x="116.6" y="371.8" width="67.7" height="23.6" fill="#2563eb"/>
<rect x="116.6" y="395.4" width="67.7" height="12.6" fill="#dc2626"/>
<text x="150.4" y="363.8" font-size="10" font-weight="400" text-anchor="middle" fill="#1f2937">184</text>
<text x="150.4" y="430.0" font-size="9" font-weight="400" text-anchor="middle" fill="#1f2937">8K + 1K</text>
<text x="150.4" y="446.0" font-size="9" font-weight="400" text-anchor="middle" fill="#1f2937">h=0</text>
<text x="150.4" y="462.0" font-size="9" font-weight="400" text-anchor="middle" fill="#1f2937">MTP=1</text>
<rect x="237.4" y="378.1" width="67.7" height="4.7" fill="#2563eb"/>
<rect x="237.4" y="382.8" width="67.7" height="25.2" fill="#dc2626"/>
<text x="271.2" y="370.1" font-size="10" font-weight="400" text-anchor="middle" fill="#1f2937">152</text>
<text x="271.2" y="430.0" font-size="9" font-weight="400" text-anchor="middle" fill="#1f2937">8K + 1K</text>
<text x="271.2" y="446.0" font-size="9" font-weight="400" text-anchor="middle" fill="#1f2937">h=0.9</text>
<text x="271.2" y="462.0" font-size="9" font-weight="400" text-anchor="middle" fill="#1f2937">MTP=1</text>
<rect x="358.2" y="330.9" width="67.7" height="1.6" fill="#2563eb"/>
<rect x="358.2" y="332.5" width="67.7" height="75.5" fill="#dc2626"/>
<text x="392.1" y="322.9" font-size="10" font-weight="400" text-anchor="middle" fill="#1f2937">392</text>
<text x="392.1" y="430.0" font-size="9" font-weight="400" text-anchor="middle" fill="#1f2937">8K + 1K</text>
<text x="392.1" y="446.0" font-size="9" font-weight="400" text-anchor="middle" fill="#1f2937">h=0.99</text>
<text x="392.1" y="462.0" font-size="9" font-weight="400" text-anchor="middle" fill="#1f2937">MTP=1</text>
<rect x="479.1" y="332.5" width="67.7" height="62.9" fill="#2563eb"/>
<rect x="479.1" y="395.4" width="67.7" height="12.6" fill="#dc2626"/>
<text x="512.9" y="324.5" font-size="10" font-weight="400" text-anchor="middle" fill="#1f2937">384</text>
<text x="512.9" y="430.0" font-size="9" font-weight="400" text-anchor="middle" fill="#1f2937">32K + 1K</text>
<text x="512.9" y="446.0" font-size="9" font-weight="400" text-anchor="middle" fill="#1f2937">h=0</text>
<text x="512.9" y="462.0" font-size="9" font-weight="400" text-anchor="middle" fill="#1f2937">MTP=1</text>
<rect x="599.9" y="389.1" width="67.7" height="6.3" fill="#2563eb"/>
<rect x="599.9" y="395.4" width="67.7" height="12.6" fill="#dc2626"/>
<text x="633.7" y="381.1" font-size="10" font-weight="400" text-anchor="middle" fill="#1f2937">96</text>
<text x="633.7" y="430.0" font-size="9" font-weight="400" text-anchor="middle" fill="#1f2937">32K + 1K</text>
<text x="633.7" y="446.0" font-size="9" font-weight="400" text-anchor="middle" fill="#1f2937">h=0.9</text>
<text x="633.7" y="462.0" font-size="9" font-weight="400" text-anchor="middle" fill="#1f2937">MTP=1</text>
<rect x="720.7" y="341.9" width="67.7" height="3.1" fill="#2563eb"/>
<rect x="720.7" y="345.1" width="67.7" height="62.9" fill="#dc2626"/>
<text x="754.6" y="333.9" font-size="10" font-weight="400" text-anchor="middle" fill="#1f2937">336</text>
<text x="754.6" y="430.0" font-size="9" font-weight="400" text-anchor="middle" fill="#1f2937">32K + 1K</text>
<text x="754.6" y="446.0" font-size="9" font-weight="400" text-anchor="middle" fill="#1f2937">h=0.99</text>
<text x="754.6" y="462.0" font-size="9" font-weight="400" text-anchor="middle" fill="#1f2937">MTP=1</text>
<rect x="841.6" y="271.2" width="67.7" height="124.2" fill="#2563eb"/>
<rect x="841.6" y="395.4" width="67.7" height="12.6" fill="#dc2626"/>
<text x="875.4" y="263.2" font-size="10" font-weight="400" text-anchor="middle" fill="#1f2937">696</text>
<text x="875.4" y="430.0" font-size="9" font-weight="400" text-anchor="middle" fill="#1f2937">128K + 1K</text>
<text x="875.4" y="446.0" font-size="9" font-weight="400" text-anchor="middle" fill="#1f2937">h=0</text>
<text x="875.4" y="462.0" font-size="9" font-weight="400" text-anchor="middle" fill="#1f2937">MTP=1</text>
<rect x="962.4" y="386.0" width="67.7" height="9.4" fill="#2563eb"/>
<rect x="962.4" y="395.4" width="67.7" height="12.6" fill="#dc2626"/>
<text x="996.2" y="378.0" font-size="10" font-weight="400" text-anchor="middle" fill="#1f2937">112</text>
<text x="996.2" y="430.0" font-size="9" font-weight="400" text-anchor="middle" fill="#1f2937">128K + 1K</text>
<text x="996.2" y="446.0" font-size="9" font-weight="400" text-anchor="middle" fill="#1f2937">h=0.9</text>
<text x="996.2" y="462.0" font-size="9" font-weight="400" text-anchor="middle" fill="#1f2937">MTP=1</text>
<rect x="1083.2" y="367.1" width="67.7" height="3.1" fill="#2563eb"/>
<rect x="1083.2" y="370.3" width="67.7" height="37.7" fill="#dc2626"/>
<text x="1117.1" y="359.1" font-size="10" font-weight="400" text-anchor="middle" fill="#1f2937">208</text>
<text x="1117.1" y="430.0" font-size="9" font-weight="400" text-anchor="middle" fill="#1f2937">128K + 1K</text>
<text x="1117.1" y="446.0" font-size="9" font-weight="400" text-anchor="middle" fill="#1f2937">h=0.99</text>
<text x="1117.1" y="462.0" font-size="9" font-weight="400" text-anchor="middle" fill="#1f2937">MTP=1</text>
<rect x="1204.1" y="62.0" width="67.7" height="333.4" fill="#2563eb"/>
<rect x="1204.1" y="395.4" width="67.7" height="12.6" fill="#dc2626"/>
<text x="1237.9" y="54.0" font-size="10" font-weight="400" text-anchor="middle" fill="#1f2937">1,760</text>
<text x="1237.9" y="430.0" font-size="9" font-weight="400" text-anchor="middle" fill="#1f2937">1M + 1K</text>
<text x="1237.9" y="446.0" font-size="9" font-weight="400" text-anchor="middle" fill="#1f2937">h=0</text>
<text x="1237.9" y="462.0" font-size="9" font-weight="400" text-anchor="middle" fill="#1f2937">MTP=1</text>
<rect x="1324.9" y="386.0" width="67.7" height="9.4" fill="#2563eb"/>
<rect x="1324.9" y="395.4" width="67.7" height="12.6" fill="#dc2626"/>
<text x="1358.8" y="378.0" font-size="10" font-weight="400" text-anchor="middle" fill="#1f2937">112</text>
<text x="1358.8" y="430.0" font-size="9" font-weight="400" text-anchor="middle" fill="#1f2937">1M + 1K</text>
<text x="1358.8" y="446.0" font-size="9" font-weight="400" text-anchor="middle" fill="#1f2937">h=0.9</text>
<text x="1358.8" y="462.0" font-size="9" font-weight="400" text-anchor="middle" fill="#1f2937">MTP=1</text>
<rect x="1445.8" y="381.3" width="67.7" height="1.6" fill="#2563eb"/>
<rect x="1445.8" y="382.8" width="67.7" height="25.2" fill="#dc2626"/>
<text x="1479.6" y="373.3" font-size="10" font-weight="400" text-anchor="middle" fill="#1f2937">136</text>
<text x="1479.6" y="430.0" font-size="9" font-weight="400" text-anchor="middle" fill="#1f2937">1M + 1K</text>
<text x="1479.6" y="446.0" font-size="9" font-weight="400" text-anchor="middle" fill="#1f2937">h=0.99</text>
<text x="1479.6" y="462.0" font-size="9" font-weight="400" text-anchor="middle" fill="#1f2937">MTP=1</text>
<rect x="1430" y="70" width="14" height="14" fill="#2563eb"/>
<text x="1450.0" y="82.0" font-size="12" font-weight="400" text-anchor="start" fill="#1f2937">Prefill cards</text>
<rect x="1430" y="96" width="14" height="14" fill="#dc2626"/>
<text x="1450.0" y="108.0" font-size="12" font-weight="400" text-anchor="start" fill="#1f2937">Decode cards</text>
</svg>
