<svg xmlns="http://www.w3.org/2000/svg" width="920" height="460" viewBox="0 0 920 460">
<rect width="100%" height="100%" fill="#ffffff"/>
<text x="460.0" y="30.0" font-size="18" font-weight="700" text-anchor="middle" fill="#1f2937">Prefill TPS per Card by Prefix Cache Hit Rate</text>
<text x="90.0" y="46.0" font-size="12" font-weight="400" text-anchor="start" fill="#1f2937">tokens/s/card</text>
<line x1="90" y1="60" x2="90" y2="374" stroke="#374151"/>
<line x1="90" y1="374" x2="880" y2="374" stroke="#374151"/>
<line x1="90" y1="374.0" x2="880" y2="374.0" stroke="#e5e7eb"/>
<text x="80.0" y="378.0" font-size="11" font-weight="400" text-anchor="end" fill="#1f2937">0.0</text>
<line x1="90" y1="311.2" x2="880" y2="311.2" stroke="#e5e7eb"/>
<text x="80.0" y="315.2" font-size="11" font-weight="400" text-anchor="end" fill="#1f2937">73,998.0</text>
<line x1="90" y1="248.4" x2="880" y2="248.4" stroke="#e5e7eb"/>
<text x="80.0" y="252.4" font-size="11" font-weight="400" text-anchor="end" fill="#1f2937">147,996.1</text>
<line x1="90" y1="185.6" x2="880" y2="185.6" stroke="#e5e7eb"/>
<text x="80.0" y="189.6" font-size="11" font-weight="400" text-anchor="end" fill="#1f2937">221,994.1</text>
<line x1="90" y1="122.8" x2="880" y2="122.8" stroke="#e5e7eb"/>
<text x="80.0" y="126.8" font-size="11" font-weight="400" text-anchor="end" fill="#1f2937">295,992.1</text>
<line x1="90" y1="60.0" x2="880" y2="60.0" stroke="#e5e7eb"/>
<text x="80.0" y="64.0" font-size="11" font-weight="400" text-anchor="end" fill="#1f2937">369,990.2</text>
<rect x="104.5" y="370.9" width="36.9" height="3.1" fill="#2563eb"/>
<text x="122.9" y="362.9" font-size="11" font-weight="400" text-anchor="middle" fill="#1f2937">3,645.59</text>
<text x="122.9" y="396.0" font-size="10" font-weight="400" text-anchor="middle" fill="#1f2937">8K</text>
<text x="122.9" y="410.0" font-size="10" font-weight="400" text-anchor="middle" fill="#1f2937">h=0</text>
<rect x="170.3" y="342.6" width="36.9" height="31.4" fill="#2563eb"/>
<text x="188.7" y="334.6" font-size="11" font-weight="400" text-anchor="middle" fill="#1f2937">36,990.81</text>
<text x="188.7" y="396.0" font-size="10" font-weight="400" text-anchor="middle" fill="#1f2937">8K</text>
<text x="188.7" y="410.0" font-size="10" font-weight="400" text-anchor="middle" fill="#1f2937">h=0.9</text>
<rect x="236.1" y="60.1" width="36.9" height="313.9" fill="#2563eb"/>
<text x="254.6" y="52.1" font-size="11" font-weight="400" text-anchor="middle" fill="#1f2937">369,823.98</text>
<text x="254.6" y="396.0" font-size="10" font-weight="400" text-anchor="middle" fill="#1f2937">8K</text>
<text x="254.6" y="410.0" font-size="10" font-weight="400" text-anchor="middle" fill="#1f2937">h=0.99</text>
<rect x="302.0" y="371.1" width="36.9" height="2.9" fill="#2563eb"/>
<text x="320.4" y="363.1" font-size="11" font-weight="400" text-anchor="middle" fill="#1f2937">3,412.45</text>
<text x="320.4" y="396.0" font-size="10" font-weight="400" text-anchor="middle" fill="#1f2937">32K</text>
<text x="320.4" y="410.0" font-size="10" font-weight="400" text-anchor="middle" fill="#1f2937">h=0</text>
<rect x="367.8" y="342.6" width="36.9" height="31.4" fill="#2563eb"/>
<text x="386.2" y="334.6" font-size="11" font-weight="400" text-anchor="middle" fill="#1f2937">36,958.39</text>
<text x="386.2" y="396.0" font-size="10" font-weight="400" text-anchor="middle" fill="#1f2937">32K</text>
<text x="386.2" y="410.0" font-size="10" font-weight="400" text-anchor="middle" fill="#1f2937">h=0.9</text>
<rect x="433.6" y="60.1" width="36.9" height="313.9" fill="#2563eb"/>
<text x="452.1" y="52.1" font-size="11" font-weight="400" text-anchor="middle" fill="#1f2937">369,888.14</text>
<text x="452.1" y="396.0" font-size="10" font-weight="400" text-anchor="middle" fill="#1f2937">32K</text>
<text x="452.1" y="410.0" font-size="10" font-weight="400" text-anchor="middle" fill="#1f2937">h=0.99</text>
<rect x="499.5" y="371.8" width="36.9" height="2.2" fill="#2563eb"/>
<text x="517.9" y="363.8" font-size="11" font-weight="400" text-anchor="middle" fill="#1f2937">2,590.56</text>
<text x="517.9" y="396.0" font-size="10" font-weight="400" text-anchor="middle" fill="#1f2937">128K</text>
<text x="517.9" y="410.0" font-size="10" font-weight="400" text-anchor="middle" fill="#1f2937">h=0</text>
<rect x="565.3" y="343.5" width="36.9" height="30.5" fill="#2563eb"/>
<text x="583.7" y="335.5" font-size="11" font-weight="400" text-anchor="middle" fill="#1f2937">35,961.75</text>
<text x="583.7" y="396.0" font-size="10" font-weight="400" text-anchor="middle" fill="#1f2937">128K</text>
<text x="583.7" y="410.0" font-size="10" font-weight="400" text-anchor="middle" fill="#1f2937">h=0.9</text>
<rect x="631.1" y="60.0" width="36.9" height="314.0" fill="#2563eb"/>
<text x="649.6" y="52.0" font-size="11" font-weight="400" text-anchor="middle" fill="#1f2937">369,990.16</text>
<text x="649.6" y="396.0" font-size="10" font-weight="400" text-anchor="middle" fill="#1f2937">128K</text>
<text x="649.6" y="410.0" font-size="10" font-weight="400" text-anchor="middle" fill="#1f2937">h=0.99</text>
<rect x="697.0" y="373.3" width="36.9" height="0.7" fill="#2563eb"/>
<text x="715.4" y="365.3" font-size="11" font-weight="400" text-anchor="middle" fill="#1f2937">790.79</text>
<text x="715.4" y="396.0" font-size="10" font-weight="400" text-anchor="middle" fill="#1f2937">1M</text>
<text x="715.4" y="410.0" font-size="10" font-weight="400" text-anchor="middle" fill="#1f2937">h=0</text>
<rect x="762.8" y="350.1" width="36.9" height="23.9" fill="#2563eb"/>
<text x="781.2" y="342.1" font-size="11" font-weight="400" text-anchor="middle" fill="#1f2937">28,201.01</text>
<text x="781.2" y="396.0" font-size="10" font-weight="400" text-anchor="middle" fill="#1f2937">1M</text>
<text x="781.2" y="410.0" font-size="10" font-weight="400" text-anchor="middle" fill="#1f2937">h=0.9</text>
<rect x="828.6" y="66.4" width="36.9" height="307.6" fill="#2563eb"/>
<text x="847.1" y="58.4" font-size="11" font-weight="400" text-anchor="middle" fill="#1f2937">362,422.52</text>
<text x="847.1" y="396.0" font-size="10" font-weight="400" text-anchor="middle" fill="#1f2937">1M</text>
<text x="847.1" y="410.0" font-size="10" font-weight="400" text-anchor="middle" fill="#1f2937">h=0.99</text>
</svg>
